<?xml version="1.0" encoding="UTF-8"?>
<svg version="1.1" xmlns="http://www.w3.org/2000/svg" width="400" height="400">
<path d="M0 0 C0.68531799 -0.00175232 1.37063599 -0.00350464 2.07672119 -0.00531006 C4.33421389 -0.00969734 6.59162764 -0.00679963 8.84912109 -0.00341797 C10.42988093 -0.00409237 12.01064066 -0.00506353 13.59140015 -0.00631714 C16.90501899 -0.00779028 20.21861086 -0.0056536 23.53222656 -0.00097656 C27.75159697 0.00469246 31.97090337 0.00145731 36.19027138 -0.00454903 C39.45735136 -0.00818901 42.72441657 -0.0069999 45.99149704 -0.00442123 C47.54541405 -0.00375998 49.09933246 -0.00455196 50.65324783 -0.00690079 C58.37866166 -0.0160088 66.00837733 0.03759514 73.68832397 1.01296997 C76.29804577 1.14454418 78.43926888 0.64786764 80.99755859 0.12939453 C83.33033586 0.03854624 85.66545488 0.00150418 88 0 C88.68531799 -0.00175232 89.37063599 -0.00350464 90.07672119 -0.00531006 C92.33421389 -0.00969734 94.59162764 -0.00679963 96.84912109 -0.00341797 C98.42988093 -0.00409237 100.01064066 -0.00506353 101.59140015 -0.00631714 C104.90501899 -0.00779028 108.21861086 -0.0056536 111.53222656 -0.00097656 C115.75159697 0.00469246 119.97090337 0.00145731 124.19027138 -0.00454903 C127.45735136 -0.00818901 130.72441657 -0.0069999 133.99149704 -0.00442123 C135.54541405 -0.00375998 137.09933246 -0.00455196 138.65324783 -0.00690079 C146.37866166 -0.0160088 154.00837733 0.03759514 161.68832397 1.01296997 C164.29804577 1.14454418 166.43926888 0.64786764 168.99755859 0.12939453 C171.33033586 0.03854624 173.66545488 0.00150418 176 0 C176.68531799 -0.00175232 177.37063599 -0.00350464 178.07672119 -0.00531006 C180.33421389 -0.00969734 182.59162764 -0.00679963 184.84912109 -0.00341797 C186.42988093 -0.00409237 188.01064066 -0.00506353 189.59140015 -0.00631714 C192.90501899 -0.00779028 196.21861086 -0.0056536 199.53222656 -0.00097656 C203.75159697 0.00469246 207.97090337 0.00145731 212.19027138 -0.00454903 C215.45735136 -0.00818901 218.72441657 -0.0069999 221.99149704 -0.00442123 C223.54541405 -0.00375998 225.09933246 -0.00455196 226.65324783 -0.00690079 C234.37866166 -0.0160088 242.00837733 0.03759514 249.68832397 1.01296997 C252.29883737 1.14458409 254.43829657 0.64846967 256.99755859 0.12939453 C259.37135819 0.02873825 261.74763742 -0.01884873 264.12353516 -0.03173828 C264.82181931 -0.03670319 265.52010345 -0.04166809 266.23954773 -0.04678345 C268.53910323 -0.0613323 270.83858972 -0.06819539 273.13818359 -0.07373047 C274.3225211 -0.07797153 274.3225211 -0.07797153 275.53078461 -0.08229828 C279.7103051 -0.09726275 283.88979132 -0.10650909 288.06933594 -0.11083984 C292.36749076 -0.11631585 296.66532744 -0.14033318 300.96338272 -0.1688118 C304.28528737 -0.18751971 307.60711666 -0.19264813 310.92906952 -0.19417572 C312.51256802 -0.19718515 314.09606573 -0.20515529 315.67951202 -0.2183609 C331.43917154 -0.34039731 331.43917154 -0.34039731 338.99755859 3.12939453 C343.86653577 8.72871828 344.12232643 13.95103659 344.12695312 21.13183594 C344.1295816 22.15981293 344.1295816 22.15981293 344.13226318 23.20855713 C344.13665046 25.46604983 344.13375275 27.72346358 344.13037109 29.98095703 C344.13104549 31.56171687 344.13201666 33.1424766 344.13327026 34.72323608 C344.1347434 38.03685493 344.13260672 41.3504468 344.12792969 44.6640625 C344.12226067 48.88343291 344.12549582 53.1027393 344.13150215 57.32210732 C344.13514214 60.5891873 344.13395302 63.85625251 344.13137436 67.12333298 C344.1307131 68.67724999 344.13150508 70.23116839 344.13385391 71.78508377 C344.14296192 79.51049759 344.08935798 87.14021327 343.11398315 94.82015991 C342.98240895 97.42988171 343.47908549 99.57110482 343.99755859 102.12939453 C344.08840689 104.4621718 344.12544894 106.79729082 344.12695312 109.13183594 C344.1295816 110.15981293 344.1295816 110.15981293 344.13226318 111.20855713 C344.13665046 113.46604983 344.13375275 115.72346358 344.13037109 117.98095703 C344.13104549 119.56171687 344.13201666 121.1424766 344.13327026 122.72323608 C344.1347434 126.03685493 344.13260672 129.3504468 344.12792969 132.6640625 C344.12226067 136.88343291 344.12549582 141.1027393 344.13150215 145.32210732 C344.13514214 148.5891873 344.13395302 151.85625251 344.13137436 155.12333298 C344.1307131 156.67724999 344.13150508 158.23116839 344.13385391 159.78508377 C344.14296192 167.51049759 344.08935798 175.14021327 343.11398315 182.82015991 C342.98237837 185.4304881 343.47747335 187.57070991 343.99755859 190.12939453 C344.09806888 192.47258151 344.14578566 194.81826806 344.15869141 197.16357422 C344.16365631 197.8521048 344.16862122 198.54063538 344.17373657 199.25003052 C344.18828356 201.51712055 344.19514821 203.78414058 344.20068359 206.05126953 C344.20351097 206.8297953 344.20633835 207.60832108 344.2092514 208.41043854 C344.22421514 212.53160438 344.23346194 216.65273547 344.23779297 220.77392578 C344.24326872 225.01154845 344.26728571 229.24884838 344.29576492 233.48637009 C344.314475 236.76195171 344.31960137 240.03745694 344.32112885 243.31308746 C344.32413781 244.87425752 344.33210636 246.4354268 344.34531403 247.99654388 C344.4095297 256.17110828 344.45421253 263.57114298 340.99755859 271.12939453 C335.37053211 276.02246104 330.11894124 276.25420587 322.90332031 276.25878906 C321.86071297 276.26141754 321.86071297 276.26141754 320.79704285 276.26409912 C318.50708491 276.26848695 316.21720478 276.26558852 313.92724609 276.26220703 C312.32406601 276.26288141 310.72088603 276.26385255 309.1177063 276.2651062 C305.75700914 276.26657941 302.39633859 276.26444241 299.03564453 276.25976562 C294.75574028 276.25409621 290.47589913 276.25733197 286.19599724 276.26333809 C282.88259418 276.26697755 279.56920569 276.2657892 276.25580215 276.2632103 C274.67955645 276.26254892 273.10330937 276.26334147 271.52706528 276.26568985 C263.73808988 276.27474106 256.04198801 276.23158149 248.29910278 275.24581909 C245.692818 275.1139791 243.55261977 275.61174332 240.99755859 276.12939453 C238.66478133 276.22024283 236.32966231 276.25728488 233.99511719 276.25878906 C233.30979919 276.26054138 232.6244812 276.2622937 231.918396 276.26409912 C229.6609033 276.2684864 227.40348955 276.26558869 225.14599609 276.26220703 C223.56523626 276.26288143 221.98447652 276.26385259 220.40371704 276.2651062 C217.09009819 276.26657934 213.77650633 276.26444266 210.46289062 276.25976562 C206.24352021 276.25409661 202.02421382 276.25733175 197.80484581 276.26333809 C194.53776582 276.26697808 191.27070062 276.26578896 188.00362015 276.2632103 C186.44970314 276.26254904 184.89578473 276.26334102 183.34186935 276.26568985 C175.61645553 276.27479786 167.98673986 276.22119392 160.30679321 275.24581909 C157.69707141 275.11424488 155.55584831 275.61092142 152.99755859 276.12939453 C150.66478133 276.22024283 148.32966231 276.25728488 145.99511719 276.25878906 C145.30979919 276.26054138 144.6244812 276.2622937 143.918396 276.26409912 C141.6609033 276.2684864 139.40348955 276.26558869 137.14599609 276.26220703 C135.56523626 276.26288143 133.98447652 276.26385259 132.40371704 276.2651062 C129.09009819 276.26657934 125.77650633 276.26444266 122.46289062 276.25976562 C118.24352021 276.25409661 114.02421382 276.25733175 109.80484581 276.26333809 C106.53776582 276.26697808 103.27070062 276.26578896 100.00362015 276.2632103 C98.44970314 276.26254904 96.89578473 276.26334102 95.34186935 276.26568985 C87.61645553 276.27479786 79.98673986 276.22119392 72.30679321 275.24581909 C69.69646502 275.11421431 67.55624321 275.60930928 64.99755859 276.12939453 C62.65437162 276.22990482 60.30868506 276.27762159 57.96337891 276.29052734 C57.27484833 276.29549225 56.58631775 276.30045715 55.87692261 276.30557251 C53.60983257 276.3201195 51.34281254 276.32698415 49.07568359 276.33251953 C48.29715782 276.33534691 47.51863205 276.33817429 46.71651459 276.34108734 C42.59534875 276.35605108 38.47421765 276.36529787 34.35302734 276.36962891 C30.11540467 276.37510466 25.87810474 276.39912164 21.64058304 276.42760086 C18.36500141 276.44631094 15.08949619 276.4514373 11.81386566 276.45296478 C10.25269561 276.45597375 8.69152633 276.4639423 7.13040924 276.47714996 C-1.04415515 276.54136564 -8.44418986 276.58604847 -16.00244141 273.12939453 C-20.87141858 267.53007078 -21.12720925 262.30775248 -21.13183594 255.12695312 C-21.13358826 254.44163513 -21.13534058 253.75631714 -21.137146 253.05023193 C-21.14153328 250.79273923 -21.13863557 248.53532548 -21.13525391 246.27783203 C-21.13592831 244.6970722 -21.13689947 243.11631246 -21.13815308 241.53555298 C-21.13962621 238.22193413 -21.13748954 234.90834227 -21.1328125 231.59472656 C-21.12714348 227.37535615 -21.13037863 223.15604976 -21.13638496 218.93668175 C-21.14002495 215.66960176 -21.13883583 212.40253655 -21.13625717 209.13545609 C-21.13559592 207.58153907 -21.13638789 206.02762067 -21.13873672 204.47370529 C-21.14784473 196.74829147 -21.09424079 189.1185758 -20.11886597 181.43862915 C-19.98729176 178.82890735 -20.4839683 176.68768424 -21.00244141 174.12939453 C-21.0932897 171.79661727 -21.13033176 169.46149824 -21.13183594 167.12695312 C-21.13358826 166.44163513 -21.13534058 165.75631714 -21.137146 165.05023193 C-21.14153328 162.79273923 -21.13863557 160.53532548 -21.13525391 158.27783203 C-21.13592831 156.6970722 -21.13689947 155.11631246 -21.13815308 153.53555298 C-21.13962621 150.22193413 -21.13748954 146.90834227 -21.1328125 143.59472656 C-21.12714348 139.37535615 -21.13037863 135.15604976 -21.13638496 130.93668175 C-21.14002495 127.66960176 -21.13883583 124.40253655 -21.13625717 121.13545609 C-21.13559592 119.58153907 -21.13638789 118.02762067 -21.13873672 116.47370529 C-21.14784473 108.74829147 -21.09424079 101.1185758 -20.11886597 93.43862915 C-19.98726119 90.82830096 -20.48235616 88.68807915 -21.00244141 86.12939453 C-21.10295169 83.78620756 -21.15066847 81.440521 -21.16357422 79.09521484 C-21.16853912 78.40668427 -21.17350403 77.71815369 -21.17861938 77.00875854 C-21.19316637 74.74166851 -21.20003102 72.47464848 -21.20556641 70.20751953 C-21.20839378 69.42899376 -21.21122116 68.65046799 -21.21413422 67.84835052 C-21.22909796 63.72718469 -21.23834475 59.60605359 -21.24267578 55.48486328 C-21.24815153 51.24724061 -21.27216852 47.00994068 -21.30064774 42.77241898 C-21.31935781 39.49683735 -21.32448418 36.22133212 -21.32601166 32.9457016 C-21.32902062 31.38453154 -21.33698917 29.82336226 -21.35019684 28.26224518 C-21.41441251 20.08768078 -21.45909535 12.68764608 -18.00244141 5.12939453 C-12.40311766 0.26041736 -7.18079935 0.00462669 0 0 Z " fill="#020202" transform="translate(43.00244140625,24.87060546875)"/>
<path d="M0 0 C3.71340068 0.88414302 5.39047497 -0.5168686 8.625 -2.375 C20.85384887 -5.59311812 33.86595612 -3.2709831 45.625 0.625 C46.615 1.285 47.605 1.945 48.625 2.625 C51.60170347 2.41971011 53.06227905 1.32727809 55.5625 -0.375 C60.97815835 -3.91175647 66.59194416 -3.58566945 72.875 -3.625 C73.68324219 -3.645625 74.49148438 -3.66625 75.32421875 -3.6875 C81.16041783 -3.72485167 86.29484362 -2.8414477 91.625 -0.375 C94.71239438 2.71239438 95.54655618 5.58561937 95.875 9.9375 C95.625 13.625 95.625 13.625 94 16.75 C92.28158758 19.53292121 92.28158758 19.53292121 93.375 22.3125 C93.7875 23.075625 94.2 23.83875 94.625 24.625 C96.20233174 29.35699521 96.15257348 33.18111468 94.4375 37.875 C92.29901581 41.1195967 91.24510083 42.19204342 87.625 43.625 C83.96507794 44.15153322 80.31668962 44.43750613 76.625 44.625 C76.65980469 45.38683594 76.69460938 46.14867187 76.73046875 46.93359375 C76.9056671 53.61615938 76.75531544 59.58985793 73.625 65.625 C70.53760562 68.71239438 67.66438063 69.54655618 63.3125 69.875 C59.29551206 69.60266183 57.12389202 68.52657175 53.625 66.625 C49.59395964 65.40971106 47.48487412 65.76028674 43.6875 67.5 C36.9752361 70.54232563 30.57061442 70.82909888 23.3125 70.875 C22.50876953 70.895625 21.70503906 70.91625 20.87695312 70.9375 C14.93224276 70.9757604 10.14422707 69.76563808 4.625 67.625 C0.90585718 66.38528573 -0.11837783 67.0684019 -3.6875 68.5 C-15.3754325 72.94816329 -26.17504342 72.44442184 -37.74609375 67.640625 C-41.40685233 65.84138638 -44.91613552 63.7867903 -48.375 61.625 C-48.931875 62.57375 -49.48875 63.5225 -50.0625 64.5 C-52.52095064 67.82223059 -53.43626686 68.70901555 -57.375 69.625 C-64.07318335 70.23392576 -67.90973264 68.26851158 -73.375 64.625 C-74.31859375 65.13160156 -74.31859375 65.13160156 -75.28125 65.6484375 C-84.71090045 70.56208066 -91.73025001 72.59567529 -102.375 70.625 C-103.84908897 70.12780728 -105.31031866 69.58945444 -106.75 69 C-110.4282882 67.60478723 -111.74905612 67.38181924 -115.375 68.625 C-120.10699521 70.20233174 -123.93111468 70.15257348 -128.625 68.4375 C-132.25607579 66.04429096 -133.84100752 63.7184053 -134.9140625 59.51171875 C-135.53531881 55.6209695 -135.73645349 51.74444248 -135.9375 47.8125 C-135.98068359 47.02423828 -136.02386719 46.23597656 -136.06835938 45.42382812 C-136.17378321 43.49105785 -136.27483094 41.55804974 -136.375 39.625 C-136.41238281 40.74777344 -136.44976562 41.87054688 -136.48828125 43.02734375 C-137.28305516 62.53305516 -137.28305516 62.53305516 -142.375 67.625 C-146.50336671 69.68918336 -149.79836965 69.93528002 -154.375 69.625 C-157.96647405 68.31273064 -159.86335412 67.29543254 -162.1875 64.25 C-165.21239192 57.56339681 -164.59590186 50.26200727 -164.61523438 43.0703125 C-164.62490908 40.89543958 -164.65595475 38.72152541 -164.6875 36.546875 C-164.74459718 29.06714443 -164.47284104 22.57258525 -161.375 15.625 C-156.60801762 10.85801762 -150.10575675 11.05808175 -143.75 10.4375 C-142.78964844 10.32986328 -141.82929688 10.22222656 -140.83984375 10.11132812 C-132.76820069 9.32825828 -125.60641341 9.50378701 -118.9375 14.5625 C-116.75197629 15.98165597 -116.75197629 15.98165597 -114.375 16.625 C-111.63718698 15.79371684 -109.49113583 14.52003446 -107.03515625 13.05859375 C-100.21809133 9.38478637 -93.32650763 9.09608392 -85.9375 11 C-84.51630859 11.44472656 -84.51630859 11.44472656 -83.06640625 11.8984375 C-80.37256541 12.62565723 -78.14966044 12.75592772 -75.375 12.625 C-75.21644531 11.96113281 -75.05789062 11.29726563 -74.89453125 10.61328125 C-73.4126942 5.00522389 -72.12812617 1.30867278 -67.375 -2.375 C-62.64300479 -3.95233174 -58.81888532 -3.90257348 -54.125 -2.1875 C-51.10654522 -0.19806389 -49.87875725 1.3668593 -48.375 4.625 C-48.375 5.285 -48.375 5.945 -48.375 6.625 C-47.67375 6.15449219 -46.9725 5.68398438 -46.25 5.19921875 C-31.01124863 -4.80121183 -17.13789478 -6.98210528 0 0 Z M-30.75 28.5 C-32.07101084 32.99143685 -31.85883625 35.72644696 -29.625 39.875 C-26.4018572 43.81439676 -24.88386738 44.40944752 -19.875 45.125 C-14.6575554 45.03656874 -10.5064062 42.46953883 -6.01171875 40.03515625 C-3.375 38.625 -3.375 38.625 -0.375 37.625 C-0.375 34.985 -0.375 32.345 -0.375 29.625 C-1.03886719 29.37105469 -1.70273437 29.11710937 -2.38671875 28.85546875 C-9.95320738 25.90619508 -9.95320738 25.90619508 -13 23.875 C-19.66648981 20.36632116 -26.39640405 22.56327825 -30.75 28.5 Z M26.625 23.625 C26.625 30.225 26.625 36.825 26.625 43.625 C33.2702091 43.32322144 33.2702091 43.32322144 36.0625 40.5 C38.03499778 36.87060408 38.1352632 34.70710558 37.625 30.625 C36.22267912 27.3037137 35.32534741 25.99268239 32.125 24.3125 C29.57503206 23.49242176 29.57503206 23.49242176 26.625 23.625 Z " fill="#000000" transform="translate(290.375,306.375)"/>
<path d="M0 0 C26.07 0 52.14 0 79 0 C79 26.07 79 52.14 79 79 C52.93 79 26.86 79 0 79 C0 52.93 0 26.86 0 0 Z " fill="#F6F6F6" transform="translate(293,119)"/>
<path d="M0 0 C26.07 0 52.14 0 79 0 C79 26.07 79 52.14 79 79 C52.93 79 26.86 79 0 79 C0 52.93 0 26.86 0 0 Z " fill="#EAEAEA" transform="translate(116,119)"/>
<path d="M0 0 C26.07 0 52.14 0 79 0 C79 26.07 79 52.14 79 79 C52.93 79 26.86 79 0 79 C0 52.93 0 26.86 0 0 Z " fill="#026480" transform="translate(28,119)"/>
<path d="M0 0 C26.07 0 52.14 0 79 0 C79 26.07 79 52.14 79 79 C52.93 79 26.86 79 0 79 C0 52.93 0 26.86 0 0 Z " fill="#F6F6F6" transform="translate(293,31)"/>
<path d="M0 0 C26.07 0 52.14 0 79 0 C79 26.07 79 52.14 79 79 C52.93 79 26.86 79 0 79 C0 52.93 0 26.86 0 0 Z " fill="#026480" transform="translate(116,31)"/>
<path d="M0 0 C26.07 0 52.14 0 79 0 C79 26.07 79 52.14 79 79 C52.93 79 26.86 79 0 79 C0 52.93 0 26.86 0 0 Z " fill="#254860" transform="translate(28,31)"/>
<path d="M0 0 C26.07 0 52.14 0 79 0 C79 25.74 79 51.48 79 78 C52.93 78 26.86 78 0 78 C0 52.26 0 26.52 0 0 Z " fill="#F7F7F7" transform="translate(116,208)"/>
<path d="M0 0 C26.07 0 52.14 0 79 0 C79 25.74 79 51.48 79 78 C52.93 78 26.86 78 0 78 C0 52.26 0 26.52 0 0 Z " fill="#EBEBEB" transform="translate(28,208)"/>
<path d="M0 0 C25.74 0 51.48 0 78 0 C78 26.07 78 52.14 78 79 C52.26 79 26.52 79 0 79 C0 52.93 0 26.86 0 0 Z " fill="#F7F7F7" transform="translate(205,119)"/>
<path d="M0 0 C25.74 0 51.48 0 78 0 C78 26.07 78 52.14 78 79 C52.26 79 26.52 79 0 79 C0 52.93 0 26.86 0 0 Z " fill="#EBEBEB" transform="translate(205,31)"/>
<path d="M0 0 C25.74 0 51.48 0 78 0 C78 25.74 78 51.48 78 78 C52.26 78 26.52 78 0 78 C0 52.26 0 26.52 0 0 Z " fill="#F8F8F8" transform="translate(293,208)"/>
<path d="M0 0 C25.74 0 51.48 0 78 0 C78 25.74 78 51.48 78 78 C52.26 78 26.52 78 0 78 C0 52.26 0 26.52 0 0 Z " fill="#F9F9F9" transform="translate(205,208)"/>
</svg>
